<?xml version="1.0" encoding="UTF-8"?>
<svg version="1.1" xmlns="http://www.w3.org/2000/svg" width="456" height="100">
<path d="M0 0 C150.48 0 300.96 0 456 0 C456 33 456 66 456 100 C305.52 100 155.04 100 0 100 C0 67 0 34 0 0 Z " fill="#080808" transform="translate(0,0)"/>
<path d="M0 0 C3.3125 2.1875 3.3125 2.1875 5.3125 5.1875 C5.4375 7.875 5.4375 7.875 5.3125 10.1875 C3.68831255 10.26840971 2.06298255 10.32664995 0.4375 10.375 C-0.46742188 10.40980469 -1.37234375 10.44460937 -2.3046875 10.48046875 C-3.48417969 10.33544922 -3.48417969 10.33544922 -4.6875 10.1875 C-5.3475 9.1975 -6.0075 8.2075 -6.6875 7.1875 C-10.27107241 6.93734127 -10.27107241 6.93734127 -13.6875 7.1875 C-14.0175 8.5075 -14.3475 9.8275 -14.6875 11.1875 C-13.89085937 11.36925781 -13.09421875 11.55101562 -12.2734375 11.73828125 C0.66932819 14.80864537 0.66932819 14.80864537 5.1875 18.875 C6.84775213 22.2877405 6.84028852 25.50764115 6.3125 29.1875 C4.932317 32.6379575 3.84035471 33.86673873 0.6640625 35.796875 C-3.17692372 37.39057091 -6.03977666 37.62078483 -10.1875 37.625 C-12.09015625 37.65400391 -12.09015625 37.65400391 -14.03125 37.68359375 C-18.26242326 37.10949225 -20.38526745 35.84194947 -23.6875 33.1875 C-26.26452109 29.75147188 -26.6875 28.58677132 -26.6875 24.1875 C-23.3875 24.1875 -20.0875 24.1875 -16.6875 24.1875 C-16.0275 25.5075 -15.3675 26.8275 -14.6875 28.1875 C-11.7175 28.1875 -8.7475 28.1875 -5.6875 28.1875 C-5.3575 26.8675 -5.0275 25.5475 -4.6875 24.1875 C-5.48414063 24.00574219 -6.28078125 23.82398437 -7.1015625 23.63671875 C-20.17089741 20.53632908 -20.17089741 20.53632908 -24.5625 16.4375 C-26.54898329 12.46453341 -26.04535703 8.72628521 -25.0625 4.5 C-19.93616208 -4.12156831 -8.35343281 -3.95528172 0 0 Z " fill="#F5F5F5" transform="translate(207.6875,32.8125)"/>
<path d="M0 0 C3.11579767 2.63306845 4.4317634 4.65371501 4.97265625 8.734375 C5.25561736 14.46219388 4.64041546 18.01133357 0.6640625 22.40625 C-3.05397425 25.85223529 -5.89446087 26.68953838 -10.8359375 26.84375 C-16.86728143 26.59005711 -20.44026884 25.35180468 -24.7109375 20.96875 C-27.09962601 15.73200981 -27.4510972 11.05590011 -26.3359375 5.40625 C-24.17928536 1.61594855 -21.59548095 -1.8091863 -17.3671875 -3.27734375 C-10.56542086 -4.33684971 -5.73287753 -4.11122691 0 0 Z " fill="#F3F3F3" transform="translate(244.3359375,43.59375)"/>
<path d="M0 0 C3.31804319 1.33100211 5.48261708 3.48261708 8 6 C8.31884766 8.43017578 8.31884766 8.43017578 8.4140625 11.4453125 C8.45273437 12.52167969 8.49140625 13.59804688 8.53125 14.70703125 C8.5621875 15.83496094 8.593125 16.96289062 8.625 18.125 C8.66367187 19.26066406 8.70234375 20.39632812 8.7421875 21.56640625 C8.83667601 24.37743956 8.92223541 27.18846233 9 30 C7.37536158 30.05395478 5.75021459 30.09277195 4.125 30.125 C2.76761719 30.15980469 2.76761719 30.15980469 1.3828125 30.1953125 C-1 30 -1 30 -3 28 C-3.99 28.66 -4.98 29.32 -6 30 C-9.3927203 30.53807751 -12.60628427 30.53321884 -16 30 C-19.42005762 27.31281187 -19.89868502 25.72186921 -20.5 21.4375 C-19.90408082 17.34055563 -19.1911264 16.52891553 -16 14 C-12.765625 12.953125 -12.765625 12.953125 -9.25 12.25 C-8.07953125 12.00765625 -6.9090625 11.7653125 -5.703125 11.515625 C-4.81109375 11.34546875 -3.9190625 11.1753125 -3 11 C-3.33 10.01 -3.66 9.02 -4 8 C-5.32 8 -6.64 8 -8 8 C-8.33 8.66 -8.66 9.32 -9 10 C-12.3 10 -15.6 10 -19 10 C-18.52048204 5.68433833 -17.29764982 3.7980059 -14 1 C-9.82321684 -1.08839158 -4.54814635 -0.44531459 0 0 Z " fill="#F0F0F0" transform="translate(323,40)"/>
<path d="M0 0 C8.91 0 17.82 0 27 0 C27 2.97 27 5.94 27 9 C21.39 9 15.78 9 10 9 C10 11.64 10 14.28 10 17 C14.62 17 19.24 17 24 17 C24 19.31 24 21.62 24 24 C19.38 24 14.76 24 10 24 C10 28.95 10 33.9 10 39 C6.7 39 3.4 39 0 39 C0 26.13 0 13.26 0 0 Z " fill="#F4F4F4" transform="translate(111,31)"/>
<path d="M0 0 C3.64705141 1.72720103 5.35211965 2.7645076 7.64453125 6.203125 C7.76953125 8.890625 7.76953125 8.890625 7.64453125 11.203125 C6.18710662 11.28409303 4.72840318 11.34230274 3.26953125 11.390625 C2.45742188 11.42542969 1.6453125 11.46023437 0.80859375 11.49609375 C0.09445312 11.39941406 -0.6196875 11.30273438 -1.35546875 11.203125 C-2.01546875 10.213125 -2.67546875 9.223125 -3.35546875 8.203125 C-6.39742302 7.86972029 -6.39742302 7.86972029 -9.35546875 8.203125 C-10.60720654 9.23345889 -10.60720654 9.23345889 -10.48828125 11.453125 C-10.48570312 12.360625 -10.483125 13.268125 -10.48046875 14.203125 C-10.48304688 15.110625 -10.485625 16.018125 -10.48828125 16.953125 C-10.60720654 19.17279111 -10.60720654 19.17279111 -9.35546875 20.203125 C-6.39742302 20.53652971 -6.39742302 20.53652971 -3.35546875 20.203125 C-2.69546875 19.213125 -2.03546875 18.223125 -1.35546875 17.203125 C0.80859375 16.91015625 0.80859375 16.91015625 3.26953125 17.015625 C4.49542969 17.05623047 4.49542969 17.05623047 5.74609375 17.09765625 C6.37257813 17.13246094 6.9990625 17.16726562 7.64453125 17.203125 C7.47922668 21.41839147 6.99946372 23.7265014 4.45703125 27.140625 C0.17149785 30.26115903 -4.88923356 29.93810864 -9.98828125 29.765625 C-14.16440437 29.06798958 -16.29641757 27.78981449 -19.21875 24.80859375 C-22.56186337 20.08687693 -21.87899585 13.70015957 -21.35546875 8.203125 C-17.13377291 -0.709344 -9.13980053 -3.09207182 0 0 Z " fill="#F1F1F1" transform="translate(274.35546875,40.796875)"/>
<path d="M0 0 C3.3 0 6.6 0 10 0 C10 2.64 10 5.28 10 8 C11.65 8 13.3 8 15 8 C15 10.31 15 12.62 15 15 C13.35 15 11.7 15 10 15 C10 19.62 10 24.24 10 29 C11.65 29 13.3 29 15 29 C15 31.64 15 34.28 15 37 C13.43908834 37.10911227 11.87591508 37.18609398 10.3125 37.25 C9.44238281 37.29640625 8.57226562 37.3428125 7.67578125 37.390625 C3.91877438 36.84215684 2.47214507 35.89594137 0 33 C-0.6037941 29.89262353 -0.47247271 26.90023182 -0.3125 23.75 C-0.28994141 22.90953125 -0.26738281 22.0690625 -0.24414062 21.203125 C-0.18537714 19.13465036 -0.09569885 17.06709512 0 15 C-1.32 15 -2.64 15 -4 15 C-4 12.69 -4 10.38 -4 8 C-2.68 8 -1.36 8 0 8 C0 5.36 0 2.72 0 0 Z " fill="#F4F5F4" transform="translate(162,33)"/>
<path d="M0 0 C3.3 0 6.6 0 10 0 C10 12.87 10 25.74 10 39 C6.7 39 3.4 39 0 39 C0 26.13 0 13.26 0 0 Z " fill="#F1F1F1" transform="translate(337,31)"/>
<path d="M0 0 C3.3 0 6.6 0 10 0 C10 9.57 10 19.14 10 29 C6.7 29 3.4 29 0 29 C0 19.43 0 9.86 0 0 Z " fill="#F0F0F0" transform="translate(143,41)"/>
<path d="M0 0 C2.97 0 5.94 0 9 0 C9 9.24 9 18.48 9 28 C6.03 28 3.06 28 0 28 C0 18.76 0 9.52 0 0 Z " fill="#FCFCFC" transform="translate(288,41)"/>
<path d="M0 0 C3 -0.3125 3 -0.3125 6 0 C8.51012963 2.51012963 8.29721609 3.46805237 8.3125 6.9375 C8.32925781 7.81277344 8.34601563 8.68804687 8.36328125 9.58984375 C8 12 8 12 6.640625 13.82421875 C5 15 5 15 2.4375 14.875 C0 14 0 14 -2 11 C-2.265625 9.0625 -2.265625 9.0625 -2.25 7 C-2.25515625 6.319375 -2.2603125 5.63875 -2.265625 4.9375 C-2 3 -2 3 0 0 Z " fill="#0D0D0D" transform="translate(230,48)"/>
<path d="M0 0 C3.3 0 6.6 0 10 0 C10 2.31 10 4.62 10 7 C6.7 7 3.4 7 0 7 C0 4.69 0 2.38 0 0 Z " fill="#F1F1F1" transform="translate(288,30)"/>
<path d="M0 0 C3.3 0 6.6 0 10 0 C10 2.31 10 4.62 10 7 C6.7 7 3.4 7 0 7 C0 4.69 0 2.38 0 0 Z " fill="#F4F4F3" transform="translate(143,30)"/>
<path d="M0 0 C1.65 0.33 3.3 0.66 5 1 C5 2.32 5 3.64 5 5 C0.545 5.495 0.545 5.495 -4 6 C-4 5.67 -4 5.34 -4 5 C-6.31 4.67 -8.62 4.34 -11 4 C-11 3.67 -11 3.34 -11 3 C-7.7 3 -4.4 3 -1 3 C-0.67 2.01 -0.34 1.02 0 0 Z " fill="#2D2D2D" transform="translate(315,47)"/>
<path d="M0 0 C2.31 0 4.62 0 7 0 C6.125 3.875 6.125 3.875 5 5 C3.00041636 5.04080783 0.99954746 5.04254356 -1 5 C-0.67 3.35 -0.34 1.7 0 0 Z " fill="#1A1A1A" transform="translate(314,58)"/>
</svg>
